<?xml version="1.0" encoding="UTF-8"?>
<svg width="1200pt" height="1200pt" version="1.1" viewBox="0 0 1200 1200" xmlns="http://www.w3.org/2000/svg">
 <defs>
  <clipPath id="b">
   <path d="m271 222.14h511v128.86h-511z"/>
  </clipPath>
  <clipPath id="a">
   <path d="m558 606h371v371.86h-371z"/>
  </clipPath>
 </defs>
 <path d="m1200 600c0 214.36-114.36 412.44-300 519.62-185.64 107.18-414.36 107.18-600 0-185.64-107.18-300-305.26-300-519.62s114.36-412.44 300-519.62c185.64-107.18 414.36-107.18 600 0 185.64 107.18 300 305.26 300 519.62" fill="#f3f4f9"/>
 <path d="m526.77 671.57c21.195 0 42.234-0.71094 62.617-2.0703 4.6602-5.875 9.6836-11.559 15.094-16.996 37.68-37.852 87.652-58.699 140.71-58.699 12.43 0 24.672 1.1641 36.613 3.4102v-125.59c-15.727 14.52-43.812 24.762-68.703 31.473-49.848 13.438-116.02 20.836-186.33 20.836-70.305 0-136.48-7.3984-186.33-20.836-24.891-6.7109-52.977-16.953-68.703-31.473v135.73c0 30.371 104.74 64.215 255.03 64.215zm-12.746-78.805h0.082031c4.1953 0.054688 8.418 0.082031 12.664 0.082031 86.18 0 166.3-11.441 214.33-30.609 3.1758-1.2656 6.7812 0.28125 8.0508 3.457 1.2656 3.1758-0.28125 6.7812-3.457 8.0508-49.414 19.715-131.25 31.488-218.92 31.488-4.3008 0-8.5742-0.03125-12.824-0.082031-3.4219-0.042969-6.1602-2.8516-6.1133-6.2734 0.039062-3.3906 2.8047-6.1133 6.1875-6.1133zm-178.39-43.977c14.074 0 25.484 11.461 25.484 25.602 0 14.145-11.41 25.605-25.484 25.605-14.074 0-25.484-11.461-25.484-25.602 0-14.141 11.406-25.605 25.484-25.605z" fill="#002e7d"/>
 <path d="m526.77 511.55c150.29 0 255.03-33.844 255.03-64.215v-136.68c-15.727 14.52-43.812 24.762-68.703 31.473-49.848 13.438-116.02 20.836-186.33 20.836-70.305 0-136.48-7.3984-186.33-20.836-24.891-6.7109-52.977-16.957-68.703-31.473v136.68c0 30.371 104.74 64.211 255.03 64.211zm-12.746-78.805h0.082031c4.1953 0.054687 8.418 0.082031 12.66 0.082031 86.18 0 166.3-11.441 214.33-30.609 3.1758-1.2656 6.7812 0.28125 8.0508 3.457 1.2656 3.1758-0.28125 6.7812-3.457 8.0508-49.414 19.715-131.25 31.488-218.92 31.488-4.3008 0-8.5742-0.027344-12.824-0.082032-3.4219-0.042968-6.1562-2.8555-6.1133-6.2734 0.042968-3.3906 2.8086-6.1133 6.1914-6.1133zm-178.39-43.973c14.074 0 25.484 11.461 25.484 25.602s-11.41 25.602-25.484 25.602c-14.074 0-25.484-11.461-25.484-25.602s11.406-25.602 25.484-25.602z" fill="#002e7d"/>
 <g clip-path="url(#b)">
  <path d="m781.8 286.36c0 35.465-114.18 64.215-255.03 64.215-140.85 0-255.03-28.75-255.03-64.215s114.18-64.215 255.03-64.215c140.85 0 255.03 28.75 255.03 64.215" fill="#002e7d"/>
 </g>
 <g clip-path="url(#a)">
  <path d="m874.8 659.98c-34.527-34.684-80.555-53.785-129.61-53.785-49.734 0-96.586 19.551-131.93 55.055-72.473 72.809-73.043 190.71-1.2617 262.82 34.523 34.684 80.551 53.785 129.61 53.785 49.734 0 96.586-19.551 131.92-55.055 72.477-72.809 73.043-190.71 1.2656-262.82zm-23.719 46.633-171.09 185.62c-1.1836 1.2812-2.8398 1.9961-4.5547 1.9961-0.31641 0-0.63672-0.023437-0.95703-0.074219-2.043-0.32031-3.7891-1.6367-4.6641-3.5117l-47.902-103.12c-1.4414-3.1016-0.09375-6.7891 3.0078-8.2266s6.7852-0.097656 8.2266 3.0078l44.004 94.73 164.81-178.82c2.3203-2.5117 6.2383-2.6758 8.7539-0.35547 2.5195 2.3164 2.6797 6.2383 0.36328 8.75z" fill="#002e7d"/>
 </g>
 <path d="m548.24 765c-7.1328 0.15625-14.312 0.25781-21.469 0.25781-4.3008 0-8.5742-0.027343-12.824-0.082031-3.4219-0.042969-6.1602-2.8555-6.1133-6.2734 0.042968-3.4219 2.7812-6.1602 6.2734-6.1133 11.996 0.15625 24.273 0.074219 36.34-0.21875 5.1602-24.605 14.98-48.449 29.465-70.082-17.418 0.96484-35.223 1.4727-53.141 1.4727-70.305 0-136.48-7.3984-186.33-20.836-24.891-6.707-52.977-16.953-68.703-31.469v141.17c0 30.371 104.74 64.215 255.03 64.215 8.0234 0 16.059-0.13281 24.043-0.32812-5.1719-23.527-6.0312-47.855-2.5742-71.711zm-212.61-4.9766c-14.074 0-25.484-11.461-25.484-25.602s11.41-25.602 25.484-25.602c14.074 0 25.484 11.461 25.484 25.602 0 14.137-11.41 25.602-25.484 25.602z" fill="#002e7d"/>
</svg>
