<svg width="156" height="32" viewBox="0 0 156 32" fill="none" xmlns="http://www.w3.org/2000/svg">
<path d="M15.3217 8.41429C15.2921 8.38464 15.2328 8.35498 15.2031 8.35498C15.2328 8.35498 15.2624 8.38464 15.3217 8.41429Z" fill="#D02630"/>
<path d="M15.9173 8.94884C15.7394 8.71159 15.5318 8.53366 15.3242 8.41504C15.5318 8.53366 15.7394 8.71159 15.9173 8.94884Z" fill="#60333C"/>
<path d="M16.5627 10.8763C16.5627 10.1943 16.3551 9.48253 15.9103 8.94873C16.3254 9.48253 16.5627 10.1646 16.5627 10.8763ZM14.3682 14.7316C15.0502 13.8716 15.6434 13.1302 15.9103 12.804C15.6434 13.1302 15.0502 13.8716 14.3682 14.7316Z" fill="#60333C"/>
<path d="M12.8299 9.94816C12.1478 10.7785 9.12298 14.5744 8.44091 15.4048C7.5809 16.4724 7.5809 18.1924 8.44091 19.26C9.30092 20.3276 10.6651 20.3276 11.5251 19.26C12.2072 18.4296 15.232 14.6337 15.9141 13.8034C16.7741 12.7358 16.7741 11.0158 15.9141 9.94816C15.0541 8.88056 13.6899 8.88056 12.8299 9.94816Z" fill="#4B74B2"/>
<path fill-rule="evenodd" clip-rule="evenodd" d="M27.7741 17.615L27.7797 17.6221C27.9571 17.8438 28.0672 18.0994 28.0672 18.409C28.0672 18.6998 28 19.017 27.7614 19.2555C27.5228 19.4941 27.2056 19.5614 26.9148 19.5614C26.5491 19.5614 26.2497 19.4 26.0275 19.1777L26.0148 19.1651L20.1277 12.3634H20.1587L14.347 5.62883L6.92609 14.5173L5.47211 16.268L3.07301 19.141C2.87615 19.3849 2.59344 19.5614 2.21173 19.5614C1.89742 19.5614 1.56984 19.4825 1.32438 19.237C1.07892 18.9915 1 18.664 1 18.3496C1 18.0723 1.10819 17.8213 1.24828 17.6345L1.25602 17.6241L13.3982 3.06486C13.873 2.49557 14.7453 2.48863 15.229 3.05029L27.7741 17.615Z" fill="white"/>
<path d="M18.7572 20.0613C18.1937 20.0613 17.6303 19.7944 17.2151 19.2606C16.7999 18.7268 15.4951 17.0957 14.3682 15.7316C15.0502 14.8716 15.6434 14.1302 15.9103 13.804C16.3254 13.2702 16.5627 12.5881 16.5627 11.8763C16.5627 11.1943 16.3551 10.4825 15.9103 9.94873C16.5923 10.7791 19.6172 14.575 20.2993 15.4054C21.1593 16.473 21.1593 18.193 20.2993 19.2606C19.8841 19.7944 19.3206 20.0613 18.7572 20.0613Z" fill="#D02630"/>
<path d="M12.8286 13.804C13.0955 14.1302 13.6886 14.8716 14.3707 15.7316C15.0528 14.8716 15.6459 14.1302 15.9128 13.804C16.7728 12.7364 16.7728 11.0164 15.9128 9.94879C15.7052 9.68189 15.4679 9.4743 15.201 9.35568C14.4003 8.97015 13.481 9.14809 12.8286 9.94879C11.9686 11.0164 11.9686 12.7364 12.8286 13.804Z" fill="#62343C"/>
<path fill-rule="evenodd" clip-rule="evenodd" d="M31.5075 15.7205L31.5106 15.7227C33.2503 17.0135 35.3954 17.6705 37.9148 17.6705C39.4287 17.6705 40.8471 17.4137 42.1758 16.8766L42.1843 16.8732C43.4416 16.3917 44.4603 15.7117 45.2736 14.8599V14.7263H37.9148C37.6236 14.7263 37.3081 14.6591 37.0654 14.4321C36.8165 14.1992 36.7328 13.882 36.7328 13.5739C36.7328 13.2662 36.8159 12.9501 37.0534 12.7125C37.291 12.475 37.6072 12.3918 37.9148 12.3918H46.3784C47.0411 12.3918 47.5784 12.9291 47.5784 13.5918V18.4967C47.5784 18.7875 47.5111 19.1047 47.2726 19.3433C47.034 19.5819 46.7168 19.6492 46.426 19.6492C46.1348 19.6492 45.8192 19.5819 45.5766 19.3549C45.3276 19.122 45.2439 18.8048 45.2439 18.4967V17.9541C43.1701 19.373 40.7164 20.0643 37.8852 20.0643C34.8252 20.0643 32.1652 19.2363 29.9619 17.5609C27.6908 15.8495 26.5312 13.6931 26.5312 11.1718C26.5312 8.65051 27.6908 6.49419 29.9619 4.78276C32.1652 3.10732 34.8252 2.2793 37.8852 2.2793C39.7558 2.2793 41.5117 2.61693 43.148 3.29613C44.7787 3.97306 46.1458 4.93156 47.2082 6.1464C47.4176 6.36279 47.5191 6.63573 47.5191 6.93107C47.5191 7.23875 47.436 7.55492 47.1984 7.79248C46.9609 8.03004 46.6447 8.11315 46.337 8.11315C45.9838 8.11315 45.6656 7.96047 45.4512 7.69908C44.6165 6.75546 43.557 6.00142 42.2351 5.46702C40.9022 4.92821 39.4536 4.64345 37.9148 4.64345C35.3954 4.64345 33.2503 5.30048 31.5106 6.59123C29.7702 7.88253 28.9251 9.40569 28.9251 11.1718C28.9251 12.9105 29.7425 14.4317 31.5075 15.7205Z" fill="white"/>
<path fill-rule="evenodd" clip-rule="evenodd" d="M52.0978 3.32946C52.3354 3.56702 52.4185 3.88319 52.4185 4.19087V18.8111C52.4185 19.1191 52.3348 19.4363 52.0858 19.6692C51.8432 19.8962 51.5276 19.9635 51.2364 19.9635C50.9456 19.9635 50.6284 19.8962 50.3898 19.6576C50.1513 19.4191 50.084 19.1019 50.084 18.8111V4.19087C50.084 3.87655 50.1629 3.55639 50.4009 3.31834C50.639 3.08029 50.9517 3.00879 51.2364 3.00879C51.5441 3.00879 51.8602 3.0919 52.0978 3.32946Z" fill="white"/>
<path fill-rule="evenodd" clip-rule="evenodd" d="M56.1414 19.6788C55.4787 19.6788 54.9414 19.1416 54.9414 18.4788V3.9062C54.9414 3.59852 55.0245 3.28235 55.2621 3.04479C55.4996 2.80723 55.8158 2.72412 56.1235 2.72412C56.4312 2.72412 56.7473 2.80723 56.9849 3.04479C57.2225 3.28235 57.3056 3.59852 57.3056 3.9062V17.3443H71.0699C71.3841 17.3443 71.7087 17.4233 71.9482 17.6708C72.1847 17.9152 72.252 18.2353 72.252 18.5264C72.252 18.8344 72.1683 19.1517 71.9193 19.3845C71.6767 19.6115 71.3611 19.6788 71.0699 19.6788H56.1414Z" fill="white"/>
<path fill-rule="evenodd" clip-rule="evenodd" d="M76.382 3.0448C76.6196 3.28236 76.7027 3.59853 76.7027 3.9062V18.5264C76.7027 18.8344 76.619 19.1517 76.37 19.3845C76.1274 19.6115 75.8118 19.6788 75.5206 19.6788C75.2298 19.6788 74.9126 19.6115 74.674 19.373C74.4354 19.1344 74.3682 18.8172 74.3682 18.5264V3.9062C74.3682 3.60837 74.4317 3.28419 74.6681 3.03971C74.908 2.79148 75.2299 2.72412 75.5206 2.72412C75.8283 2.72412 76.1444 2.80723 76.382 3.0448Z" fill="white"/>
<path d="M83.791 16.5243L83.7911 16.5243L83.7881 16.5228C82.012 15.6493 81.2291 14.6178 81.2291 13.5147C81.2291 13.2497 81.1579 13.0063 80.9817 12.8301C80.8054 12.6538 80.5621 12.5826 80.2971 12.5826C80.0377 12.5826 79.7977 12.6434 79.6136 12.8107C79.4309 12.9768 79.3414 13.2134 79.3076 13.4837L79.3057 13.4991V13.5147C79.3057 15.3286 80.3966 16.7911 82.4561 17.9723C84.5199 19.1559 87.027 19.7255 89.9944 19.7255C92.9166 19.7255 95.3182 19.3978 97.1912 18.7635C99.4509 18.0102 100.683 16.822 100.683 15.1754C100.683 14.3505 100.436 13.6254 99.9282 13.0172C99.4242 12.4132 98.6769 11.94 97.7008 11.5892C96.605 11.1935 94.5046 10.7757 91.3918 10.3607C91.3918 10.3607 91.3917 10.3607 91.3916 10.3607L88.9915 10.0347C88.9913 10.0347 88.991 10.0347 88.9908 10.0346C86.0541 9.61932 84.1202 9.23654 83.1967 8.91929C81.8008 8.42469 81.2291 7.77258 81.2291 7.02014C81.2291 6.68531 81.3928 6.357 81.7806 6.03325C82.1727 5.70593 82.777 5.39929 83.6086 5.12211C85.2634 4.57051 87.3984 4.30459 90.0537 4.30459C92.4848 4.30459 94.5497 4.7438 96.3164 5.64161L96.3164 5.64163L96.3193 5.64308C98.0955 6.51659 98.8783 7.54811 98.8783 8.6512C98.8783 8.91624 98.9495 9.15958 99.1258 9.33582C99.302 9.51206 99.5454 9.58327 99.8104 9.58327C100.075 9.58327 100.319 9.51206 100.495 9.33582C100.671 9.15959 100.742 8.91624 100.742 8.6512C100.742 6.83733 99.6515 5.37478 97.592 4.19359C95.5283 3.00998 93.0211 2.44043 90.0537 2.44043C87.1314 2.44043 84.7298 2.76811 82.8568 3.40243C80.5972 4.15576 79.365 5.34389 79.365 6.99048C79.365 7.81993 79.6302 8.53911 80.1613 9.14256C80.6876 9.74065 81.4632 10.2121 82.4654 10.5765L82.4673 10.5772C83.4136 10.913 85.544 11.331 88.7412 11.8046C88.7415 11.8047 88.7417 11.8047 88.7419 11.8047L89.8971 11.9825L89.8971 11.9825L89.8998 11.9829L91.1453 12.1608L91.1463 12.1609C94.1483 12.5771 96.0774 12.9301 97.0263 13.2752C98.2969 13.7372 98.8487 14.357 98.8487 15.1458C98.8487 15.4835 98.6895 15.8119 98.3103 16.134C97.9262 16.4604 97.33 16.7668 96.4989 17.0438C94.8441 17.5954 92.7091 17.8613 90.0537 17.8613C87.6227 17.8613 85.5577 17.4221 83.791 16.5243Z" fill="white" stroke="white" stroke-width="0.5"/>
<path fill-rule="evenodd" clip-rule="evenodd" d="M105.325 3.0448C105.563 3.28236 105.646 3.59853 105.646 3.9062V18.5264C105.646 18.8344 105.562 19.1517 105.313 19.3845C105.071 19.6115 104.755 19.6788 104.464 19.6788C104.173 19.6788 103.856 19.6115 103.617 19.373C103.379 19.1344 103.312 18.8172 103.312 18.5264V3.9062C103.312 3.59188 103.39 3.27172 103.628 3.03367C103.867 2.79562 104.179 2.72412 104.464 2.72412C104.772 2.72412 105.088 2.80723 105.325 3.0448Z" fill="white"/>
<path fill-rule="evenodd" clip-rule="evenodd" d="M113.882 16.9863L113.885 16.9873C115.325 17.4953 117.101 17.7298 119.264 17.7298C121.419 17.7298 123.202 17.4676 124.65 16.9851C125.766 16.6034 126.552 16.1031 127.058 15.5106C127.556 14.9266 127.809 14.2215 127.809 13.3663V3.9062C127.809 3.59853 127.892 3.28236 128.13 3.0448C128.367 2.80723 128.684 2.72412 128.991 2.72412C129.299 2.72412 129.615 2.80723 129.853 3.04479C130.09 3.28235 130.173 3.59852 130.173 3.9062V13.3663C130.173 14.5995 129.851 15.689 129.196 16.6167C128.543 17.5402 127.582 18.2724 126.352 18.8331L126.35 18.8341C124.485 19.6731 122.096 20.094 119.235 20.094C116.403 20.094 114.014 19.673 112.149 18.8341C110.902 18.2729 109.934 17.5329 109.277 16.606C108.619 15.6752 108.296 14.5857 108.296 13.3663V3.87507L108.3 3.84418C108.338 3.54079 108.443 3.23823 108.686 3.01726C108.932 2.79374 109.241 2.72412 109.537 2.72412C109.845 2.72412 110.161 2.80723 110.399 3.04479C110.636 3.28235 110.719 3.59852 110.719 3.9062V13.3663C110.719 14.2185 110.978 14.9238 111.481 15.5094C111.991 16.1039 112.78 16.6046 113.882 16.9863Z" fill="white"/>
<path fill-rule="evenodd" clip-rule="evenodd" d="M151.903 3.30126C152.561 2.31286 154.102 2.77889 154.102 3.96646V18.5267C154.102 18.8175 154.034 19.1347 153.796 19.3733C153.557 19.6119 153.24 19.6791 152.949 19.6791C152.658 19.6791 152.343 19.6119 152.1 19.3849C151.851 19.152 151.767 18.8348 151.767 18.5267V7.7554L144.191 19.1448C143.716 19.858 142.669 19.8588 142.194 19.1463L134.588 7.75092V18.497C134.588 18.7878 134.521 19.105 134.283 19.3436C134.044 19.5822 133.727 19.6495 133.436 19.6495C133.145 19.6495 132.829 19.5822 132.587 19.3552C132.338 19.1223 132.254 18.8051 132.254 18.497V3.96099C132.254 2.77425 133.793 2.30762 134.452 3.29447L143.192 16.3801L151.903 3.30126Z" fill="white"/>
<g opacity="0.7">
<path d="M23.7999 31.6454C24.2616 31.6454 24.6633 31.5224 24.9519 31.2939C25.2425 31.0638 25.4124 30.7311 25.4124 30.3296C25.4124 30.0086 25.2995 29.716 25.0798 29.4922C24.9276 29.3372 24.7271 29.2181 24.4838 29.1442C24.6664 29.0524 24.813 28.9336 24.9237 28.794C25.0948 28.578 25.1751 28.3183 25.1751 28.0461C25.1751 27.6286 24.9968 27.3023 24.7009 27.0834C24.4083 26.867 24.0073 26.7599 23.5627 26.7599H22.1096C22.0348 26.7599 21.9604 26.7786 21.9054 26.8336C21.8504 26.8887 21.8316 26.9631 21.8316 27.0378V31.3675C21.8316 31.4422 21.8504 31.5166 21.9054 31.5717C21.9604 31.6267 22.0348 31.6454 22.1096 31.6454H23.7999ZM23.2661 28.8951H22.5358V27.4344H23.533C23.7871 27.4344 24.0091 27.4911 24.1647 27.6013C24.3159 27.7084 24.4117 27.8706 24.4117 28.1054C24.4117 28.3 24.3345 28.4936 24.1585 28.6402C23.9813 28.7879 23.6951 28.8951 23.2661 28.8951ZM23.4441 29.5102C23.873 29.5102 24.1752 29.6175 24.368 29.7703C24.5594 29.9222 24.6489 30.1233 24.6489 30.3296C24.6489 30.5343 24.5606 30.6992 24.4119 30.8188C24.2617 30.9396 24.047 31.0159 23.7971 31.0303H22.5654V29.5102H23.4441Z" fill="white" stroke="white" stroke-width="0.2"/>
<path d="M26.8746 27.0378V31.3675C26.8746 31.454 26.908 31.5261 26.9638 31.5757C27.0177 31.6236 27.0868 31.6454 27.1525 31.6454H27.3305C27.4052 31.6454 27.4796 31.6267 27.5346 31.5717C27.5897 31.5166 27.6084 31.4422 27.6084 31.3675V27.0378C27.6084 26.9631 27.5897 26.8887 27.5346 26.8336C27.4796 26.7786 27.4052 26.7599 27.3305 26.7599H27.1525C27.0778 26.7599 27.0034 26.7786 26.9484 26.8336C26.8934 26.8887 26.8746 26.9631 26.8746 27.0378Z" fill="white" stroke="white" stroke-width="0.2"/>
<path d="M29.1031 29.2028C29.1031 27.7834 30.2452 26.671 31.6052 26.671C32.2079 26.671 32.7347 26.7613 33.2028 27.0733C33.2614 27.1124 33.3099 27.1676 33.329 27.2377C33.3488 27.3103 33.3332 27.3842 33.2898 27.4492L33.2338 27.5333C33.1985 27.6016 33.1445 27.6653 33.0661 27.6867C32.984 27.7091 32.9086 27.6767 32.8503 27.6233C32.3427 27.3436 32.0072 27.3158 31.5756 27.3158C30.6245 27.3158 29.8073 28.129 29.8073 29.1434C29.8073 29.6243 29.9769 30.0809 30.2951 30.4166C30.6123 30.7511 31.0821 30.9711 31.6942 30.9711C32.0809 30.9711 32.4843 30.8912 32.8101 30.6641V29.7179H31.7238C31.6491 29.7179 31.5747 29.6992 31.5197 29.6442C31.4647 29.5891 31.4459 29.5147 31.4459 29.44V29.351C31.4459 29.2763 31.4647 29.2019 31.5197 29.1469C31.5747 29.0918 31.6491 29.0731 31.7238 29.0731H33.2066C33.2813 29.0731 33.3558 29.0918 33.4108 29.1469C33.4658 29.2019 33.4846 29.2763 33.4846 29.351V30.7745C33.4846 30.8307 33.4751 30.8912 33.4443 30.9527C33.4139 31.0135 33.3657 31.0692 33.297 31.1209C33.2967 31.121 33.2965 31.1212 33.2963 31.1214L33.2363 31.0414C32.7025 31.4566 32.1094 31.5455 31.6645 31.5455L29.1031 29.2028ZM29.1031 29.2028C29.1031 30.5895 30.1839 31.7366 31.6677 31.6455L29.1031 29.2028Z" fill="white" stroke="white" stroke-width="0.2"/>
<path d="M39.7002 31.0304L39.7002 31.0304H39.6974C38.7147 31.0304 37.8994 30.2448 37.8994 29.2028C37.8994 28.1894 38.7157 27.3751 39.6974 27.3751C40.6801 27.3751 41.4953 28.1607 41.4953 29.2028C41.4953 30.2474 40.6781 31.0583 39.7002 31.0304ZM39.6974 26.671C38.3077 26.671 37.1656 27.813 37.1656 29.2028C37.1656 30.5925 38.3077 31.7345 39.6974 31.7345C41.0871 31.7345 42.2291 30.5925 42.2291 29.2028C42.2291 27.813 41.0871 26.671 39.6974 26.671Z" fill="white" stroke="white" stroke-width="0.2"/>
<path d="M43.9666 31.67L43.982 31.6751H43.9982H44.1762C44.2509 31.6751 44.3253 31.6563 44.3803 31.6013C44.4354 31.5463 44.4541 31.4719 44.4541 31.3972V28.1425L46.9343 31.5045C46.9899 31.6426 47.1318 31.6751 47.2307 31.6751H47.3197C47.3944 31.6751 47.4688 31.6563 47.5238 31.6013C47.5789 31.5463 47.5976 31.4719 47.5976 31.3972V27.0675C47.5976 26.9927 47.5789 26.9183 47.5238 26.8633C47.4688 26.8083 47.3944 26.7895 47.3197 26.7895H47.1417C47.067 26.7895 46.9926 26.8083 46.9376 26.8633C46.8826 26.9183 46.8638 26.9927 46.8638 27.0675V30.2925L44.3766 26.921C44.3418 26.8692 44.3018 26.8268 44.2507 26.7984C44.1983 26.7693 44.1432 26.7599 44.0872 26.7599H43.9982C43.9235 26.7599 43.8491 26.7786 43.7941 26.8336C43.7391 26.8887 43.7203 26.9631 43.7203 27.0378V31.3675C43.7203 31.5526 43.8646 31.636 43.9666 31.67Z" fill="white" stroke="white" stroke-width="0.2"/>
<path d="M55.3084 30.6851L55.3018 30.6883L55.2957 30.6926C55.0192 30.8861 54.6251 31.0007 54.1965 31.0007C53.5977 31.0007 53.1277 30.7946 52.8074 30.4673C52.4866 30.1395 52.3096 29.6836 52.3096 29.1731C52.3096 28.6768 52.4796 28.2207 52.7971 27.8892C53.1137 27.5587 53.5834 27.3455 54.1965 27.3455C54.617 27.3455 54.9845 27.485 55.3017 27.6576C55.3657 27.6989 55.4381 27.7135 55.5091 27.6941C55.5793 27.675 55.6344 27.6265 55.6735 27.5679C55.6735 27.5679 55.6735 27.5679 55.6735 27.5679L55.7328 27.4789L55.6523 27.4252L55.7328 27.4789C55.7762 27.4139 55.7918 27.3399 55.7721 27.2674C55.753 27.1975 55.7049 27.1426 55.6466 27.1035C55.2444 26.8252 54.8095 26.671 54.1965 26.671C52.5672 26.671 51.5758 27.8451 51.5758 29.2028C51.5758 29.8792 51.8219 30.5134 52.276 30.9675C52.7307 31.4222 53.3883 31.6907 54.1993 31.6455C54.8375 31.6451 55.271 31.4923 55.6719 31.216C55.7898 31.1514 55.8167 30.9931 55.7328 30.8673L55.6521 30.9211L55.7328 30.8673L55.6801 30.7882C55.6541 30.7227 55.6033 30.6717 55.5314 30.6521C55.4588 30.6323 55.3809 30.6488 55.3084 30.6851Z" fill="white" stroke="white" stroke-width="0.2"/>
<path d="M57.2086 27.0378V31.3675C57.2086 31.454 57.242 31.5261 57.2978 31.5757C57.3517 31.6236 57.4207 31.6454 57.4865 31.6454H59.859C59.9337 31.6454 60.0081 31.6267 60.0631 31.5717C60.1182 31.5166 60.1369 31.4422 60.1369 31.3675V31.2785C60.1369 31.2038 60.1182 31.1294 60.0631 31.0744C60.0081 31.0194 59.9337 31.0006 59.859 31.0006H57.9424V27.0378C57.9424 26.9631 57.9236 26.8887 57.8686 26.8336C57.8136 26.7786 57.7392 26.7599 57.6645 26.7599H57.4865C57.4118 26.7599 57.3374 26.7786 57.2824 26.8336C57.2273 26.8887 57.2086 26.9631 57.2086 27.0378Z" fill="white" stroke="white" stroke-width="0.2"/>
<path d="M63.3038 31.0304L63.3038 31.0304H63.3009C62.3182 31.0304 61.5029 30.2448 61.5029 29.2028C61.5029 28.1894 62.3192 27.3751 63.3009 27.3751C64.2836 27.3751 65.0989 28.1607 65.0989 29.2028C65.0989 30.2474 64.2817 31.0583 63.3038 31.0304ZM63.3009 26.671C61.9112 26.671 60.7691 27.813 60.7691 29.2028C60.7691 30.5925 61.9112 31.7345 63.3009 31.7345C64.6906 31.7345 65.8327 30.5925 65.8327 29.2028C65.8327 27.813 64.6906 26.671 63.3009 26.671Z" fill="white" stroke="white" stroke-width="0.2"/>
<path d="M67.2652 27.0378V29.8254C67.2652 30.4432 67.4823 30.9238 67.8395 31.2454C68.1952 31.5655 68.6808 31.7199 69.2054 31.7048C69.7278 31.7045 70.2123 31.5506 70.5677 31.2347C70.9252 30.9169 71.1425 30.4435 71.1425 29.8254V27.0378C71.1425 26.9631 71.1238 26.8887 71.0687 26.8336C71.0137 26.7786 70.9393 26.7599 70.8646 26.7599H70.6867C70.6119 26.7599 70.5375 26.7786 70.4825 26.8336C70.4275 26.8887 70.4087 26.9631 70.4087 27.0378V29.8254C70.4087 30.231 70.2697 30.5293 70.0554 30.7268C69.8399 30.9255 69.5394 31.0303 69.2039 31.0303C68.8667 31.0303 68.5664 30.932 68.3517 30.7374C68.1386 30.5442 67.999 30.2467 67.999 29.8254V27.0378C67.999 26.9631 67.9803 26.8887 67.9253 26.8336C67.8702 26.7786 67.7958 26.7599 67.7211 26.7599H67.5432C67.4684 26.7599 67.394 26.7786 67.339 26.8336C67.284 26.8887 67.2652 26.9631 67.2652 27.0378Z" fill="white" stroke="white" stroke-width="0.2"/>
<path d="M74.4551 31.0006H74.3551V31.0303H73.6061V27.4047H74.4551C75.4909 27.4047 76.1937 28.2136 76.1937 29.2027C76.1937 30.1918 75.4909 31.0006 74.4551 31.0006ZM72.902 27.0378V31.3675C72.902 31.4422 72.9207 31.5166 72.9757 31.5717C73.0308 31.6267 73.1052 31.6454 73.1799 31.6454H74.4551C75.9354 31.6454 76.9275 30.561 76.9275 29.2027C76.9275 28.5265 76.6891 27.9151 76.2579 27.4722C75.8261 27.0288 75.2065 26.7599 74.4551 26.7599H73.1799C73.1052 26.7599 73.0308 26.7786 72.9757 26.8336C72.9207 26.8887 72.902 26.9631 72.902 27.0378Z" fill="white" stroke="white" stroke-width="0.2"/>
<path d="M78.4562 30.7037C78.1592 30.7037 77.941 30.9607 77.941 31.2189C77.941 31.5114 78.1637 31.7341 78.4562 31.7341C78.7487 31.7341 78.9714 31.5114 78.9714 31.2189C78.9714 30.9264 78.7487 30.7037 78.4562 30.7037Z" fill="white" stroke="white" stroke-width="0.2"/>
<path d="M84.9845 31.6454C85.4462 31.6454 85.8479 31.5224 86.1364 31.2939C86.4271 31.0638 86.5969 30.7311 86.5969 30.3296C86.5969 30.0086 86.4841 29.716 86.2643 29.4922C86.1121 29.3372 85.9117 29.2181 85.6683 29.1442C85.851 29.0524 85.9976 28.9336 86.1082 28.794C86.2794 28.578 86.3597 28.3183 86.3597 28.0461C86.3597 27.6286 86.1813 27.3023 85.8855 27.0834C85.5929 26.867 85.1919 26.7599 84.7473 26.7599H83.2941C83.2194 26.7599 83.145 26.7786 83.09 26.8336C83.035 26.8887 83.0162 26.9631 83.0162 27.0378V31.3675C83.0162 31.4422 83.035 31.5166 83.09 31.5717C83.145 31.6267 83.2194 31.6454 83.2941 31.6454H84.9845ZM84.4804 28.8951H83.75V27.4344H84.7473C84.9855 27.4344 85.2001 27.4907 85.3522 27.6007C85.5003 27.7079 85.5962 27.8704 85.5962 28.1054C85.5962 28.3026 85.5246 28.496 85.3565 28.6414C85.1873 28.7879 84.9094 28.8951 84.4804 28.8951ZM84.6286 29.5102C85.0576 29.5102 85.3598 29.6175 85.5525 29.7703C85.744 29.9222 85.8335 30.1233 85.8335 30.3296C85.8335 30.5343 85.7452 30.6992 85.5965 30.8188C85.4463 30.9396 85.2315 31.0159 84.9817 31.0303H83.75V29.5102H84.6286Z" fill="white" stroke="white" stroke-width="0.2"/>
<path d="M88.0553 27.0378V31.3675C88.0553 31.454 88.0887 31.5261 88.1444 31.5757C88.1984 31.6236 88.2674 31.6454 88.3332 31.6454H88.5111C88.5859 31.6454 88.6603 31.6267 88.7153 31.5717C88.7703 31.5166 88.7891 31.4422 88.7891 31.3675V27.0378C88.7891 26.9631 88.7703 26.8887 88.7153 26.8336C88.6603 26.7786 88.5859 26.7599 88.5111 26.7599H88.3332C88.2585 26.7599 88.1841 26.7786 88.129 26.8336C88.074 26.8887 88.0553 26.9631 88.0553 27.0378Z" fill="white" stroke="white" stroke-width="0.2"/>
<path d="M90.277 29.2028C90.277 27.7818 91.4502 26.671 92.8087 26.671C93.4113 26.671 93.9382 26.7613 94.4063 27.0733C94.4649 27.1124 94.5134 27.1676 94.5325 27.2377C94.5523 27.3103 94.5366 27.3843 94.4933 27.4492L94.4373 27.5333C94.4019 27.6016 94.3479 27.6653 94.2696 27.6867C94.1875 27.7091 94.1121 27.6767 94.0538 27.6233C93.5458 27.3434 93.2103 27.3158 92.8087 27.3158C91.8577 27.3158 91.0404 28.129 91.0404 29.1434C91.0404 29.6243 91.2101 30.0809 91.5282 30.4166C91.8454 30.7511 92.3152 30.9711 92.9273 30.9711C93.3141 30.9711 93.7174 30.8912 94.0432 30.6641V29.7179H92.957C92.8823 29.7179 92.8078 29.6992 92.7528 29.6442C92.6978 29.5891 92.679 29.5147 92.679 29.44V29.351C92.679 29.2763 92.6978 29.2019 92.7528 29.1469C92.8078 29.0918 92.8823 29.0731 92.957 29.0731H94.4398C94.5145 29.0731 94.5889 29.0918 94.6439 29.1469C94.6989 29.2019 94.7177 29.2763 94.7177 29.351V30.7745C94.7177 30.8307 94.7082 30.8912 94.6775 30.9527C94.647 31.0135 94.5988 31.0692 94.5301 31.1209C94.5299 31.121 94.5296 31.1212 94.5294 31.1214L94.4694 31.0414C93.9356 31.4566 93.3425 31.5455 92.8977 31.5455L90.277 29.2028ZM90.277 29.2028C90.277 30.5914 91.3595 31.7364 92.9007 31.6455L90.277 29.2028Z" fill="white" stroke="white" stroke-width="0.2"/>
<path d="M100.907 26.671C99.5176 26.671 98.3756 27.813 98.3756 29.2028C98.3756 30.5925 99.5176 31.7345 100.907 31.7345C102.297 31.7345 103.439 30.5925 103.439 29.2028C103.439 27.813 102.297 26.671 100.907 26.671ZM100.878 27.3751C101.86 27.3751 102.676 28.1607 102.676 29.2028C102.676 30.2448 101.86 31.0304 100.878 31.0304C99.895 31.0304 99.0797 30.2448 99.0797 29.2028C99.0797 28.1894 99.896 27.3751 100.878 27.3751Z" fill="white" stroke="white" stroke-width="0.2"/>
<path d="M105.586 26.9191L105.581 26.9131L105.576 26.9078C105.528 26.8602 105.482 26.8219 105.431 26.7964C105.378 26.7697 105.325 26.7599 105.268 26.7599H105.179C105.104 26.7599 105.03 26.7786 104.975 26.8336C104.92 26.8887 104.901 26.9631 104.901 27.0378V31.3675C104.901 31.4556 104.936 31.527 104.993 31.579C105.048 31.6278 105.117 31.6554 105.184 31.6721L105.196 31.6751H105.209H105.386C105.461 31.6751 105.536 31.6563 105.591 31.6013C105.646 31.5463 105.664 31.4719 105.664 31.3972V28.1425L108.145 31.5045C108.2 31.6426 108.342 31.6751 108.441 31.6751H108.53C108.605 31.6751 108.679 31.6563 108.734 31.6013C108.789 31.5463 108.808 31.4719 108.808 31.3972V27.0675C108.808 26.9927 108.789 26.9183 108.734 26.8633C108.679 26.8083 108.605 26.7895 108.53 26.7895H108.352C108.277 26.7895 108.203 26.8083 108.148 26.8633C108.093 26.9183 108.074 26.9927 108.074 27.0675V30.2925L105.586 26.9191Z" fill="white" stroke="white" stroke-width="0.2"/>
<path d="M114.695 31.0006H114.595V31.0303H113.846V27.4047H114.695C115.731 27.4047 116.433 28.2135 116.433 29.2027C116.433 30.1918 115.731 31.0006 114.695 31.0006ZM113.112 27.0378V31.3675C113.112 31.454 113.145 31.5261 113.201 31.5757C113.255 31.6236 113.324 31.6454 113.39 31.6454H114.665C116.145 31.6454 117.137 30.561 117.137 29.2027C117.137 28.5265 116.899 27.9151 116.468 27.4722C116.036 27.0288 115.416 26.7599 114.665 26.7599H113.39C113.315 26.7599 113.241 26.7786 113.186 26.8336C113.131 26.8887 113.112 26.9631 113.112 27.0378Z" fill="white" stroke="white" stroke-width="0.2"/>
<path d="M118.012 31.3015L118.011 31.3012L118.008 31.3136C117.988 31.3927 117.994 31.4798 118.049 31.5486C118.104 31.6172 118.19 31.6454 118.283 31.6454H118.461C118.538 31.6454 118.605 31.626 118.659 31.5836C118.712 31.5424 118.744 31.4869 118.763 31.4308L119.064 30.6372H121.357L121.659 31.4308C121.677 31.4869 121.709 31.5424 121.762 31.5836C121.816 31.626 121.884 31.6454 121.96 31.6454H122.109C122.199 31.6454 122.29 31.6183 122.342 31.5435C122.396 31.4669 122.386 31.3748 122.348 31.2973L120.631 26.9736C120.586 26.8433 120.458 26.7599 120.329 26.7599H120.003C119.874 26.7599 119.746 26.8435 119.701 26.9739L118.012 31.3015ZM119.26 30.022L120.181 27.6681L121.102 30.022H119.26Z" fill="white" stroke="white" stroke-width="0.2"/>
<path d="M126.598 27.1268V27.0378C126.598 26.9631 126.579 26.8887 126.524 26.8336C126.469 26.7786 126.395 26.7599 126.32 26.7599H122.88C122.805 26.7599 122.731 26.7786 122.676 26.8336C122.621 26.8887 122.602 26.9631 122.602 27.0378V27.1268C122.602 27.2015 122.621 27.2759 122.676 27.3309C122.731 27.3859 122.805 27.4047 122.88 27.4047H124.233V31.3675C124.233 31.4422 124.252 31.5166 124.307 31.5717C124.362 31.6267 124.436 31.6454 124.511 31.6454H124.689C124.764 31.6454 124.838 31.6267 124.893 31.5717C124.948 31.5166 124.967 31.4422 124.967 31.3675V27.4047H126.32C126.395 27.4047 126.469 27.3859 126.524 27.3309C126.579 27.2759 126.598 27.2015 126.598 27.1268Z" fill="white" stroke="white" stroke-width="0.2"/>
<path d="M128.566 26.9739L126.878 31.2976C126.841 31.3749 126.829 31.4706 126.891 31.5486C126.95 31.6212 127.047 31.6454 127.147 31.6454H127.325C127.402 31.6454 127.469 31.626 127.524 31.5836C127.577 31.5424 127.608 31.4869 127.627 31.4308L127.928 30.6372H130.222L130.523 31.4308C130.542 31.4869 130.573 31.5424 130.626 31.5836C130.681 31.626 130.748 31.6454 130.825 31.6454H130.973C131.063 31.6454 131.155 31.6183 131.207 31.5435C131.26 31.4669 131.25 31.3748 131.213 31.2973L129.495 26.9736C129.45 26.8433 129.322 26.7599 129.194 26.7599H128.867C128.739 26.7599 128.611 26.8435 128.566 26.9739ZM128.124 30.022L129.045 27.6681L129.966 30.022H128.124Z" fill="white" stroke="white" stroke-width="0.2"/>
<path d="M132.756 30.7037C132.618 30.7037 132.496 30.7723 132.411 30.8664C132.326 30.9603 132.27 31.0874 132.27 31.2189C132.27 31.5065 132.488 31.7341 132.756 31.7341C133.048 31.7341 133.271 31.5114 133.271 31.2189C133.271 30.9264 133.048 30.7037 132.756 30.7037Z" fill="white" stroke="white" stroke-width="0.2"/>
</g>
</svg>
